{"title":"Misfits S01 (PSP, iPod, Zune)","uid":5746758,"size":1300874430,"categoryP":"video","categoryS":"handheld","magnet":"?xt=urn:btih:79932d7cba3311aa2d1f7d17434c906e1b844ea4&amp;dn=Misfits+S01+%28PSP%2C+iPod%2C+Zune%29&amp;tr=udp%3A%2F%2Ftracker.openbittorrent.com%3A80&amp;tr=udp%3A%2F%2Fopen.demonii.com%3A1337&amp;tr=udp%3A%2F%2Ftracker.coppersurfer.tk%3A6969&amp;tr=udp%3A%2F%2Fexodus.desync.com%3A6969","seeders":0,"leechers":0,"uploader":"The_Day_Walker","files":-1,"time":1281245779,"description":"Source: Various HDTV Releases \n\nEncoded for PSP, iPod, and Zune.\n\nI love this show, I cant wait for the second season to air, which is scheduled for November 2010.\n\nIr has one of the guys from The Tudors.\n\nGenre: Comedy | Drama | Fantasy | Sci-Fi\n\nShow Nfo - Misfits is a British live-action superhero comedy-drama.\n\nMisfits follows five teenagers on community service who get struck by lightning and are given special powers. Kelly (Lauren Socha) gains the ability to read the thoughts of others, Curtis (Nathan Stewart Jarrett) can rewind time, Alisha (Antonia Thomas) sends people into a sexual frenzy when they touch her skin, and Simon (Iwan Rheon) can become invisible. Seemingly left unaffected is smart Alec Nathan (Robert Sheehan), although his power is revealed in the sixth episode.\n\n\nEnjoy and please help me seed!\n\nVideo Specs: \nFormat                           : MPEG-4\nCodec ID                         : M4V \nFile size                        : 206 MiB\nDuration                         : 45mn 30s\nOverall bit rate                 : 633 Kbps\nMovie name                       : Misfits S01E01\nEncoded date                     : 2010\nWriting application              : Lavf52.33.0\n\nVideo\nID                               : 1\nFormat                           : AVC\nFormat/Info                      : Advanced Video Codec\nFormat profile                   : &lt;a class=&quot;__cf_email__&quot; href=&quot;/cdn-cgi/l/email-protection&quot; data-cfemail=&quot;eba98a988e8782858eaba7dac5d8&quot;&gt;[email&amp;#160;protected]&lt;/a&gt;&lt;script data-cfhash='f9e31' type=&quot;text/javascript&quot;&gt;\n/* &lt;![CDATA[ */!function(){try{var t=&quot;currentScript&quot;in document?document.currentScript:function(){for(var t=document.getElementsByTagName(&quot;script&quot;),e=t.length;e--;)if(t[e].getAttribute(&quot;data-cfhash&quot;))return t[e]}();if(t&amp;&amp;t.previousSibling){var e,r,n,i,c=t.previousSibling,a=c.getAttribute(&quot;data-cfemail&quot;);if(a){for(e=&quot;&quot;,r=parseInt(a.substr(0,2),16),n=2;a.length-n;n+=2)i=parseInt(a.substr(n,2),16)^r,e+=String.fromCharCode(i);e=document.createTextNode(e),c.parentNode.replaceChild(e,c)}t.parentNode.removeChild(t);}}catch(u){}}()/* ]]&gt; */&lt;/script&gt;\nFormat settings, CABAC           : No\nFormat settings, ReFrames        : 1 frame\nCodec ID                         : avc1\nCodec ID/Info                    : Advanced Video Coding\nDuration                         : 45mn 30s\nBit rate mode                    : Variable\nBit rate                         : 500 Kbps\nWidth                            : 320 pixels\nHeight                           : 240 pixels\nDisplay aspect ratio             : 4:3\nFrame rate mode                  : Constant\nFrame rate                       : 29.970 fps\nColor space                      : YUV\nChroma subsampling               : 4:2:0\nBit depth                        : 8 bits\nScan type                        : Progressive\nBits/(Pixel*Frame)               : 0.217\nStream size                      : 163 MiB (79%)\n\nAudio\nID                               : 2\nFormat                           : AAC\nFormat/Info                      : Advanced Audio Codec\nFormat version                   : Version 4\nFormat profile                   : LC\nFormat settings, SBR             : No\nCodec ID                         : 40\nDuration                         : 45mn 29s\nBit rate mode                    : Variable\nBit rate                         : 128 Kbps\nChannel(s)                       : 2 channels\nChannel positions                : Front: L R\nSampling rate                    : 48.0 KHz\nStream size                      : 41.6 MiB (20%)","torrent":{"xt":"urn:btih:79932d7cba3311aa2d1f7d17434c906e1b844ea4","amp;dn":"Misfits+S01+%28PSP%2C+iPod%2C+Zune%29","amp;tr":["udp%3A%2F%2Ftracker.openbittorrent.com%3A80","udp%3A%2F%2Fopen.demonii.com%3A1337","udp%3A%2F%2Ftracker.coppersurfer.tk%3A6969","udp%3A%2F%2Fexodus.desync.com%3A6969"],"infoHash":"79932d7cba3311aa2d1f7d17434c906e1b844ea4","infoHashBuffer":{"type":"Buffer","data":[121,147,45,124,186,51,17,170,45,31,125,23,67,76,144,110,27,132,78,164]},"announce":[],"urlList":[]}}